<svg xmlns="http://www.w3.org/2000/svg" version="1.1" xmlns:xlink="http://www.w3.org/1999/xlink" xmlns:svgjs="http://svgjs.dev/svgjs" width="1000" height="625" viewBox="0 0 1000 625"><g transform="matrix(1,0,0,1,0,0)"><svg viewBox="0 0 576 360" data-background-color="#ffffff" preserveAspectRatio="xMidYMid meet" height="625" width="1000" xmlns="http://www.w3.org/2000/svg" xmlns:xlink="http://www.w3.org/1999/xlink"><defs></defs><g id="tight-bounds" transform="matrix(1,0,0,1,0,0)"><svg viewBox="0 0 576 360" height="360" width="576"><g><svg></svg></g><g><svg viewBox="0 0 576 360" height="360" width="576"><g><path d="M132.115 90l155.885-90 155.885 90v180l-155.885 90-155.885-90z" fill="#47b2e4" data-fill-palette-color="tertiary"></path></g><g transform="matrix(1,0,0,1,183.83772766860346,99)"><svg viewBox="0 0 208.3245446627931 162" height="162" width="208.3245446627931"><g><svg viewBox="0 0 208.3245446627931 162" height="162" width="208.3245446627931"><g><svg viewBox="0 0 230.39999999999998 179.16659825377855" height="162" width="208.3245446627931"><g transform="matrix(1,0,0,1,0,133.3430481659051)"><svg viewBox="0 0 230.39999999999998 45.82355008787346" height="45.82355008787346" width="230.39999999999998"><g><svg viewBox="0 0 230.39999999999998 45.82355008787346" height="45.82355008787346" width="230.39999999999998"><g><svg viewBox="0 0 230.39999999999998 45.82355008787346" height="45.82355008787346" width="230.39999999999998"><g transform="matrix(1,0,0,1,0,0)"><svg width="230.39999999999998" viewBox="2.1 -33.4 170.69 33.95" height="45.82355008787346" data-palette-color="#ffffff"><path d="M17.7-33.35L22.8-33.35 22.8-4.15 23.3 0 18.25 0.5 17.8-1.8Q14.55 0.55 11.45 0.55L11.45 0.55Q6.8 0.55 4.45-2.18 2.1-4.9 2.1-11.4 2.1-17.9 4.95-21.03 7.8-24.15 12.35-24.15L12.35-24.15Q15-24.15 17.7-23L17.7-23 17.7-33.35ZM11.8-4.25L11.8-4.25Q14.45-4.25 17.7-6.95L17.7-6.95 17.7-18.1Q15.1-19.35 12.6-19.35L12.6-19.35Q7.65-19.35 7.65-11.4L7.65-11.4Q7.65-4.25 11.8-4.25ZM26.15-23.75L31.05-23.75 31.2-22.4Q33.1-24.15 34.9-24.15L34.9-24.15Q37.45-24.15 38.75-22.25L38.75-22.25Q41.35-24.15 43.35-24.15L43.35-24.15Q46.35-24.15 47.62-22.4 48.9-20.65 48.9-15.9L48.9-15.9 48.9 0 43.8 0 43.8-13.7Q43.8-18.3 43-19L43-19Q42.6-19.4 41.85-19.4 41.1-19.4 39.95-18.4L39.95-18.4Q40.2-17.25 40.2-13.7L40.2-13.7 40.2-8.15 35.15-8.15 35.15-13.7Q35.15-18.25 34.6-19L34.6-19Q34.3-19.4 33.57-19.4 32.85-19.4 31.4-18.3L31.4-18.3 31.4 0 26.15 0 26.15-23.75ZM52.1-24L52.1-24Q52.1-33.25 63.2-33.25L63.2-33.25Q67.09-33.25 72.09-31.5L72.09-31.5 70.95-26.95Q65.84-28.55 62.92-28.58 60-28.6 58.7-27.6 57.4-26.6 57.4-24.1L57.4-24.1Q57.4-22.4 58.85-21.23 60.3-20.05 63.75-19.15L63.75-19.15Q69-17.75 70.95-15.55 72.9-13.35 72.9-9L72.9-9Q72.9 0.45 61.6 0.45L61.6 0.45Q57.85 0.45 52.15-1.15L52.15-1.15 53.2-5.9Q53.2-5.85 54.75-5.45L54.75-5.45Q59.6-4.2 62.27-4.2 64.95-4.2 66.27-5.55 67.59-6.9 67.59-8.95 67.59-11 66.47-12.1 65.34-13.2 62.35-14.05L62.35-14.05Q56.95-15.55 54.52-17.75 52.1-19.95 52.1-24ZM96.99 0L91.99 0 91.89-1.75Q87.89 0.5 85.39 0.5L85.39 0.5Q81.34 0.5 79.49-1.83 77.64-4.15 77.64-9.25L77.64-9.25 77.64-23.75 82.79-23.75 82.79-9.55Q82.79-4.4 86.14-4.4L86.14-4.4Q88.79-4.4 91.84-6.45L91.84-6.45 91.84-23.75 96.99-23.75 96.99 0ZM110.69-19.05L105.14-19.05 105.14-23.65 115.84-23.65 115.84-4.6 121.39-4.6 121.39 0 104.74 0 104.74-4.6 110.69-4.6 110.69-19.05ZM110.84-28.03Q109.89-29 109.89-30.3 109.89-31.6 110.79-32.5L110.79-32.5Q111.69-33.4 112.99-33.4 114.29-33.4 115.19-32.52 116.09-31.65 116.09-30.3 116.09-28.95 115.19-28 114.29-27.05 113.04-27.05 111.79-27.05 110.84-28.03ZM131.99-9.1L131.99-19.15 128.19-19.15 128.19-23.75 131.99-23.75 131.99-29.45 137.14-29.95 137.14-23.75 146.04-23.75 146.04-19.15 137.14-19.15 137.14-9.1Q137.14-6.35 137.69-5.25L137.69-5.25Q138.29-4.15 140.29-4.15 142.29-4.15 145.59-4.95L145.59-4.95 146.44-0.45Q142.64 0.55 139.94 0.55L139.94 0.55Q135.14 0.55 133.56-1.6 131.99-3.75 131.99-9.1L131.99-9.1ZM152.44-11.85Q152.44-17.9 155.14-21.03 157.84-24.15 162.64-24.15 167.44-24.15 170.06-21.33 172.69-18.5 172.79-13.05L172.79-13.05 172.59-9.35 157.99-9.35Q158.44-3.95 163.39-3.95L163.39-3.95Q166.84-3.95 170.69-5.2L170.69-5.2 171.74-0.85Q170.14-0.3 167.59 0.13 165.04 0.55 163.39 0.55L163.39 0.55Q152.44 0.55 152.44-11.85L152.44-11.85ZM162.84-19.5L162.84-19.5Q160.49-19.5 159.31-18.13 158.14-16.75 157.99-13.55L157.99-13.55 167.24-13.55Q167.24-19.5 162.84-19.5Z" opacity="1" transform="matrix(1,0,0,1,0,0)" fill="#ffffff" class="undefined-text-0" data-fill-palette-color="quaternary" id="text-0"></path></svg></g></svg></g></svg></g></svg></g><g transform="matrix(1,0,0,1,73.27490739493163,0)"><svg viewBox="0 0 83.8501852101367 126.65629244288225" height="126.65629244288225" width="83.8501852101367"><g><svg xmlns="http://www.w3.org/2000/svg" xmlns:xlink="http://www.w3.org/1999/xlink" version="1.1" x="0" y="0" viewBox="24.761855407245655 5 59.58264309935908 90" enable-background="new 0 0 100 100" xml:space="preserve" width="83.8501852101367" height="126.65629244288225" class="icon-icon-0" data-fill-palette-color="quaternary" id="icon-0"><g fill="#ffffff" data-fill-palette-color="quaternary"><path d="M73.76 35.603C86.875 48 91.5 66.25 65.633 82.379c3.64-4.928 5.654-9.794 6.096-14.669 0.951-10.516-5.606-19.072-12.835-26.752C48.298 29.7 47.51 18.84 56.413 6.782 54.578 22.641 64.6 26.944 73.76 35.603zM45.288 93.716c6.184-13.053 7.276-20.302-8.197-34.939-4.204-3.977-7.451-8.029-9.71-12.086-2.881 6.435-5.164 20.081 3.244 27.935C36.312 79.938 44.125 83.125 45.288 93.716zM56.709 43.014C48.183 33.954 41.999 21.253 54 5 21.497 17.692 19.625 38.125 39.151 56.597 55.603 72.158 54.75 80.75 48 95 79.875 71.5 68.709 55.764 56.709 43.014z" fill="#ffffff" data-fill-palette-color="quaternary"></path></g></svg></g></svg></g><g></g></svg></g></svg></g></svg></g></svg></g></svg><rect width="576" height="360" fill="none" stroke="none" visibility="hidden"></rect></g></svg></g></svg>